<?xml version="1.0" encoding="UTF-8" standalone="no" ?>
<!DOCTYPE svg PUBLIC "-//W3C//DTD SVG 1.1//EN" "http://www.w3.org/Graphics/SVG/1.1/DTD/svg11.dtd">
<svg xmlns="http://www.w3.org/2000/svg" xmlns:xlink="http://www.w3.org/1999/xlink" version="1.1" width="500" height="500" viewBox="0 0 500 500" xml:space="preserve">
<desc>Created with Fabric.js 4.6.0</desc>
<defs>
</defs>
<g transform="matrix(12.64 0 0 2.07 250 121.73)" id="tNe2W8ARfRmit7OguY59V"  >
<path style="stroke: rgb(133,185,112); stroke-width: 0; stroke-dasharray: none; stroke-linecap: butt; stroke-dashoffset: 0; stroke-linejoin: miter; stroke-miterlimit: 4; fill: rgb(0,0,0); fill-rule: nonzero; opacity: 1;" vector-effect="non-scaling-stroke"  transform=" translate(0, 0)" d="M -15.83113 -15.83113 L 15.83114 -15.83113 L 15.83114 15.83114 L -15.83113 15.83114 z" stroke-linecap="round" />
</g>
<g transform="matrix(12.17 0 0 1.6 245.9 250)" id="ZrDUYt3ZZ0XtMFr8Bi9wu"  >
<path style="stroke: rgb(0,0,0); stroke-width: 1; stroke-dasharray: none; stroke-linecap: butt; stroke-dashoffset: 0; stroke-linejoin: miter; stroke-miterlimit: 4; fill: rgb(255,255,255); fill-rule: nonzero; opacity: 1;" vector-effect="non-scaling-stroke"  transform=" translate(0, 0)" d="M -15.83113 -15.83113 L 15.83114 -15.83113 L 15.83114 15.83114 L -15.83113 15.83114 z" stroke-linecap="round" />
</g>
<g transform="matrix(12.17 0 0 1.6 245.9 381.15)" id="mWv66ZD5iVxSJejYeQfr2"  >
<path style="stroke: rgb(0,0,0); stroke-width: 1; stroke-dasharray: none; stroke-linecap: butt; stroke-dashoffset: 0; stroke-linejoin: miter; stroke-miterlimit: 4; fill: rgb(255,255,255); fill-rule: nonzero; opacity: 1;" vector-effect="non-scaling-stroke"  transform=" translate(0, 0)" d="M -15.83113 -15.83113 L 15.83114 -15.83113 L 15.83114 15.83114 L -15.83113 15.83114 z" stroke-linecap="round" />
</g>
<g transform="matrix(0 -2.61 2.45 0 245.9 261.67)" id="y9DKwIq_QGnWzX47IAydj"  >
<path style="stroke: rgb(0,0,0); stroke-width: 1; stroke-dasharray: none; stroke-linecap: butt; stroke-dashoffset: 0; stroke-linejoin: miter; stroke-miterlimit: 4; fill: rgb(255,255,255); fill-rule: nonzero; opacity: 1;" vector-effect="non-scaling-stroke"  transform=" translate(-40, -40)" d="M 41.17 72.5 L 80 40 L 41.17 7.5 L 41.17 28.105 L 0 28.105 L 0 51.952 L 41.17 51.952 L 41.17 72.5 z" stroke-linecap="round" />
</g>
</svg>